<svg id="Layer_1" data-name="Layer 1" xmlns="http://www.w3.org/2000/svg" xmlns:xlink="http://www.w3.org/1999/xlink" viewBox="0 0 179.88 35.39"><defs><style>.cls-1{fill:none;}.cls-2{fill:#bcbcbc;}.cls-3{fill:#c8c7c9;}.cls-4{fill:#f2f2f2;}.cls-5{clip-path:url(#clip-path);}.cls-6{fill:url(#linear-gradient);}.cls-7{clip-path:url(#clip-path-2);}.cls-8{fill:url(#linear-gradient-2);}.cls-9{clip-path:url(#clip-path-3);}.cls-10{fill:url(#linear-gradient-3);}.cls-11{isolation:isolate;font-size:13px;fill:#fff;font-family:SourceSansPro-Semibold, Source Sans Pro;font-weight:600;}.cls-12{letter-spacing:-0.01em;}.cls-13{letter-spacing:-0.03em;}.cls-14{letter-spacing:-0.01em;}.cls-15{letter-spacing:-0.02em;}</style><clipPath id="clip-path"><path class="cls-1" d="M16.72,20.64a9.49,9.49,0,0,1,4.69-1,2,2,0,0,1-1.54-1.76c-2.27.07-3.15,2.79-3.15,2.79"/></clipPath><linearGradient id="linear-gradient" x1="-268.64" y1="405.25" x2="-268.04" y2="405.25" gradientTransform="matrix(6.26, 2.53, 2.53, -6.26, 675.74, 3233.8)" gradientUnits="userSpaceOnUse"><stop offset="0" stop-color="#bcbcbc"/><stop offset="0.91" stop-color="#f2f2f2"/><stop offset="1" stop-color="#f2f2f2"/></linearGradient><clipPath id="clip-path-2"><path class="cls-1" d="M26.7,8.09l1.17.22-.37.22ZM18.48,6.33A3.83,3.83,0,0,1,20,8.09a5,5,0,0,0-2.43,2L13,11.69l3.89-.15a8.49,8.49,0,0,0-.14,1.39s.22,2.57,3.23,4.92c0,0-2.06-10.94,9.39-9.17,0,0-2-2.28-7.19-1.4a3.08,3.08,0,0,0-2.64-1.17c-.37.07-.74.14-1,.22"/></clipPath><linearGradient id="linear-gradient-2" x1="-268.85" y1="469.53" x2="-268.26" y2="469.53" gradientTransform="matrix(22.03, 8.89, 8.89, -22.03, 1763.55, 12739.52)" xlink:href="#linear-gradient"/><clipPath id="clip-path-3"><path class="cls-1" d="M17.89,22.77s.22-.3.44-.15-.07.37-.07.37a.41.41,0,0,1-.37-.22m-4.18-2.72c-.3.74,0,1,0,1l3.15,3.38L13,21.59a2.37,2.37,0,0,0-.14,1.25,20.6,20.6,0,0,0,4.91,3.82,3.57,3.57,0,0,0-1.32.66,7.14,7.14,0,0,0,2.94,1.32s.44-.37.81-.66l.29.14a15.17,15.17,0,0,0,3.16,1,.73.73,0,0,0-.3.37,7.72,7.72,0,0,0,3.89.73l.44-1.17h.15a5.44,5.44,0,0,0,4.26-7.34c.22,2.5-1.69,2.79-1.69,2.79l-.22.73L29.56,25l-.37.74-.44-.44-.51.51-.59-.51-.73.58-.59-.73-.88.51L25,25.19l-1,.29-.44-.66-1,.3-.59-.66-.88.22-.73-.81-.95.07a2.29,2.29,0,0,1-.67-.51.79.79,0,0,0-.14-1c-.08-.07-.15-.07-.22-.15a.89.89,0,0,0-1.1.15l-2.43-2a.7.7,0,0,0-.07-.67.69.69,0,0,0-.51-.22.78.78,0,0,0-.66.59"/></clipPath><linearGradient id="linear-gradient-3" x1="-274.08" y1="477.73" x2="-273.48" y2="477.73" gradientTransform="matrix(32.9, 3.44, 3.44, -32.9, 7386.05, 16684.64)" gradientUnits="userSpaceOnUse"><stop offset="0" stop-color="#f2f2f2"/><stop offset="1" stop-color="#bcbcbc"/></linearGradient></defs><title>logo-01</title><path class="cls-2" d="M21.78,14.18A2.09,2.09,0,0,1,24.2,13a2.2,2.2,0,0,1,1.54,2.27,3.15,3.15,0,0,0-.58-4c-2-1.9-4,1.69-3.38,2.94"/><path class="cls-3" d="M22.15,17.56c-1.54-3.6.88-5.8,2.35-5.87a3.19,3.19,0,0,0,2.2-1l-1.47-1,2,.07,2.06-1.1a4.82,4.82,0,0,0-1.47-.44l-.3.15-.44-.22a8.61,8.61,0,0,0-6.31,2.27c-2.27,2.5-.88,7.34-.88,7.34-2.27,0-3.15,2.72-3.15,2.72a9.38,9.38,0,0,1,4.69-1c2.06.51,3.45,3,3.45,3a3.88,3.88,0,0,0-2.71-5"/><path class="cls-4" d="M29.34,8.75a4.74,4.74,0,0,0-1.47-.44l-.29.15-.44-.22a8.58,8.58,0,0,0-6.31,2.27C18.55,13,20,17.85,20,17.85s.88-5.8,4.4-6.24h.15a3.22,3.22,0,0,0,2.2-.95l-1.47-1,2,.08Z"/><g class="cls-5"><polygon class="cls-6" points="15.76 20.27 17.38 16.31 22.44 18.29 20.83 22.25 15.76 20.27"/></g><g class="cls-7"><polygon class="cls-8" points="8.86 16.23 15.18 0.53 33.38 7.87 26.99 23.57 8.86 16.23"/></g><g class="cls-9"><polygon class="cls-10" points="11.58 30.4 12.9 17.48 33.82 19.61 32.5 32.6 11.58 30.4"/></g><text class="cls-11" transform="translate(42.09 24.27)">Media Cen<tspan class="cls-12" x="57.76" y="0">t</tspan><tspan x="62.32" y="0">er Su</tspan><tspan class="cls-13" x="90.7" y="0">r</tspan><tspan x="95.2" y="0">a</tspan><tspan class="cls-14" x="102" y="0">b</tspan><tspan x="109.17" y="0">a</tspan><tspan class="cls-15" x="115.97" y="0">y</tspan><tspan x="122.15" y="0">a</tspan></text></svg>